<svg viewBox="0 0 400 400" xmlns="http://www.w3.org/2000/svg">
  <path d="M281.488 301c6.388 0 12.311-1.14 17.768-3.42 5.457-2.28 10.315-5.433 14.574-9.456a43.696 43.696 0 009.983-14.084c2.395-5.365 3.593-11.133 3.593-17.303 0-10.999-2.994-20.388-8.984-28.167-5.99-7.78-14.707-11.67-26.153-11.67-5.324 0-10.249.805-14.774 2.415-4.526 1.61-7.587 3.085-9.184 4.426a165.146 165.146 0 01-1.997-9.054 46.483 46.483 0 01-.798-8.651c0-9.658 1.664-18.242 4.991-25.753 3.328-7.511 7.92-14.486 13.776-20.924 5.856-6.439 12.777-12.609 20.763-18.51 7.986-5.902 16.637-11.938 25.954-18.108L313.032 99c-12.778 6.975-24.89 14.352-36.336 22.131-11.446 7.78-21.562 16.9-30.346 27.363-8.785 10.462-15.706 22.534-20.763 36.215-5.058 13.681-7.587 29.777-7.587 48.287 0 7.511 1.264 15.29 3.793 23.339 2.53 8.047 6.389 15.358 11.58 21.93 5.19 6.572 11.779 12.005 19.765 16.297 7.986 4.292 17.436 6.438 28.35 6.438zm-148 0c6.388 0 12.311-1.14 17.768-3.42 5.457-2.28 10.315-5.433 14.574-9.456a43.696 43.696 0 009.983-14.084c2.395-5.365 3.593-11.133 3.593-17.303 0-10.999-2.994-20.388-8.984-28.167-5.99-7.78-14.707-11.67-26.153-11.67-5.324 0-10.249.805-14.774 2.415-4.526 1.61-7.587 3.085-9.184 4.426a165.146 165.146 0 01-1.997-9.054 46.483 46.483 0 01-.798-8.651c0-9.658 1.664-18.242 4.991-25.753 3.328-7.511 7.92-14.486 13.776-20.924 5.856-6.439 12.777-12.609 20.763-18.51 7.986-5.902 16.637-11.938 25.954-18.108L165.032 99c-12.778 6.975-24.89 14.352-36.336 22.131-11.446 7.78-21.562 16.9-30.346 27.363-8.785 10.462-15.706 22.534-20.763 36.215C72.529 198.39 70 214.486 70 232.996c0 7.511 1.264 15.29 3.793 23.339 2.53 8.047 6.389 15.358 11.58 21.93 5.19 6.572 11.779 12.005 19.765 16.297 7.986 4.292 17.436 6.438 28.35 6.438z"/>
</svg>
